<?xml version="1.0" encoding="UTF-8" standalone="no"?>
<!-- Generator: Adobe Illustrator 14.0.0, SVG Export Plug-In . SVG Version: 6.00 Build 43363)  -->

<svg
   xmlns:dc="http://purl.org/dc/elements/1.1/"
   xmlns:cc="http://creativecommons.org/ns#"
   xmlns:rdf="http://www.w3.org/1999/02/22-rdf-syntax-ns#"
   xmlns:svg="http://www.w3.org/2000/svg"
   xmlns="http://www.w3.org/2000/svg"
   xmlns:sodipodi="http://sodipodi.sourceforge.net/DTD/sodipodi-0.dtd"
   xmlns:inkscape="http://www.inkscape.org/namespaces/inkscape"
   version="1.1"
   id="Layer_1"
   x="0px"
   y="0px"
   width="150px"
   height="150px"
   viewBox="0 0 150 150"
   enable-background="new 0 0 150 150"
   xml:space="preserve"
   sodipodi:docname="emulatorjs-logo.svg"
   inkscape:version="0.92.5 (2060ec1f9f, 2020-04-08)"><metadata
   id="metadata92"><rdf:RDF><cc:Work
       rdf:about=""><dc:format>image/svg+xml</dc:format><dc:type
         rdf:resource="http://purl.org/dc/dcmitype/StillImage" /><dc:title></dc:title></cc:Work></rdf:RDF></metadata><defs
   id="defs90" /><sodipodi:namedview
   pagecolor="#ffffff"
   bordercolor="#666666"
   borderopacity="1"
   objecttolerance="10"
   gridtolerance="10"
   guidetolerance="10"
   inkscape:pageopacity="0"
   inkscape:pageshadow="2"
   inkscape:window-width="1920"
   inkscape:window-height="1015"
   id="namedview88"
   showgrid="false"
   inkscape:zoom="4.0485775"
   inkscape:cx="53.221437"
   inkscape:cy="82.798363"
   inkscape:window-x="1920"
   inkscape:window-y="36"
   inkscape:window-maximized="1"
   inkscape:current-layer="Layer_1" />
<g
   id="g85"
   transform="matrix(1.0517244,0,0,1.0469061,-3.2271261,-8.6202879)">
	<path
   d="M 109.243,113.365 H 39.32 c 9.22,8.688 21.473,14.041 34.958,14.058 13.487,-0.017 25.737,-5.369 34.965,-14.058"
   id="path73"
   inkscape:connector-curvature="0"
   style="fill:#00b9f1" />
	<path
   d="M 109.258,35.515 C 100.038,26.818 87.78,21.451 74.279,21.434 60.776,21.451 48.518,26.818 39.298,35.515 Z"
   id="path75"
   inkscape:connector-curvature="0"
   style="fill:#00b9f1" />
	<path
   d="M 132.818,35.515 H 114.916 C 104.722,24.363 90.265,17.333 74.207,17.333 c -16.067,0 -30.518,7.03 -40.702,18.182 H 16.741 c -6.172,0 -11.182,5.01 -11.182,11.183 v 55.476 c 0,6.175 5.01,11.191 11.182,11.191 H 33.52 c 10.184,11.144 24.629,18.147 40.688,18.147 16.05,0 30.492,-7.004 40.688,-18.147 h 17.924 c 6.182,0 11.182,-5.017 11.182,-11.191 V 46.698 C 144,40.525 139,35.515 132.818,35.515 M 74.207,21.427 c 0.021,0 0.048,0.006 0.07,0.006 13.501,0.018 25.763,5.384 34.979,14.082 H 39.296 39.154 C 48.383,26.8 60.683,21.427 74.207,21.427 m -35.029,91.938 h 0.142 69.923 c -9.229,8.688 -21.479,14.041 -34.965,14.056 -0.022,0 -0.049,0.011 -0.07,0.011 -13.519,0 -25.802,-5.362 -35.03,-14.067 m 100.757,-11.191 c 0,3.925 -3.199,7.123 -7.122,7.123 H 114.895 113.114 109.237 39.178 35.302 33.52 16.741 c -3.923,0 -7.12,-3.198 -7.12,-7.123 V 46.688 c 0,-3.923 3.197,-7.098 7.12,-7.098 h 12.237 10.177 70.102 10.202 13.354 c 3.923,0 7.122,3.174 7.122,7.098 z"
   id="path77"
   inkscape:connector-curvature="0"
   style="fill:#093553" />
	<path
   d="m 122.11,62.073 c -0.687,0 -1.345,0.041 -1.994,0.159 0.118,-0.64 0.168,-1.306 0.168,-1.962 0,-6.688 -5.438,-12.148 -12.12,-12.148 -6.694,0 -12.146,5.461 -12.146,12.148 0,0.656 0.039,1.323 0.157,1.962 -0.641,-0.118 -1.304,-0.159 -1.983,-0.159 -6.69,0 -12.142,5.452 -12.142,12.141 0,6.689 5.451,12.141 12.142,12.141 0.68,0 1.343,-0.041 1.983,-0.159 -0.118,0.64 -0.157,1.307 -0.157,1.962 0,6.69 5.452,12.148 12.146,12.148 6.683,0 12.12,-5.458 12.12,-12.148 0,-0.655 -0.05,-1.322 -0.168,-1.962 0.649,0.118 1.308,0.159 1.994,0.159 6.68,0 12.118,-5.452 12.118,-12.141 0,-6.689 -5.438,-12.141 -12.118,-12.141 M 108.149,52.19 c 4.456,0 8.072,3.616 8.072,8.072 0,4.464 -3.616,8.086 -8.072,8.086 -4.462,0 -8.072,-3.622 -8.072,-8.086 0,-4.456 3.611,-8.072 8.072,-8.072 M 94.197,82.295 c -4.463,0 -8.08,-3.618 -8.08,-8.09 0,-4.455 3.617,-8.072 8.08,-8.072 4.464,0 8.082,3.617 8.082,8.072 0,4.472 -3.618,8.09 -8.082,8.09 m 13.952,13.945 c -4.462,0 -8.072,-3.616 -8.072,-8.072 0,-4.467 3.61,-8.072 8.072,-8.072 4.456,0 8.072,3.605 8.072,8.072 10e-4,4.456 -3.616,8.072 -8.072,8.072 m 13.947,-13.945 c -4.464,0 -8.073,-3.618 -8.073,-8.09 0,-4.455 3.609,-8.072 8.073,-8.072 4.464,0 8.08,3.617 8.08,8.072 0,4.472 -3.616,8.09 -8.08,8.09"
   id="path79"
   inkscape:connector-curvature="0"
   style="fill:#093553" />
	<path
   d="M 54.73,62.573 V 54.651 50.59 h -4.068 -15.156 -4.06 v 4.061 7.922 h -7.945 -4.068 v 4.06 15.163 4.061 h 4.068 7.945 v 7.946 4.059 h 4.06 15.156 4.068 v -4.059 -7.946 h 7.915 4.066 v -4.061 -15.163 -4.06 h -4.066 z m 7.93,19.223 H 50.662 V 93.803 H 35.498 V 81.796 H 23.501 V 66.641 H 35.498 V 54.643 H 50.662 V 66.642 H 62.66 Z"
   id="path81"
   inkscape:connector-curvature="0"
   style="fill:#093553" />
	<path
   d="M 132.812,39.59 H 119.461 109.259 39.156 28.978 16.741 c -3.924,0 -7.12,3.172 -7.12,7.099 v 55.484 c 0,3.925 3.196,7.123 7.12,7.123 h 16.779 1.78 3.877 70.059 3.876 1.782 17.917 c 3.924,0 7.121,-3.198 7.121,-7.123 V 46.689 c 0.001,-3.927 -3.197,-7.099 -7.12,-7.099 M 66.713,66.631 v 15.167 4.058 H 62.644 54.73 v 7.947 4.057 H 50.662 35.507 31.446 V 93.803 85.856 H 23.501 19.433 V 81.798 66.631 62.574 h 4.068 7.945 V 54.65 50.589 h 4.061 15.155 4.068 v 4.061 7.924 h 7.914 4.069 z m 55.397,19.723 c -0.687,0 -1.345,-0.04 -1.993,-0.16 0.117,0.644 0.167,1.308 0.167,1.964 0,6.689 -5.438,12.147 -12.119,12.147 -6.695,0 -12.147,-5.458 -12.147,-12.147 0,-0.656 0.039,-1.32 0.157,-1.964 -0.64,0.12 -1.304,0.16 -1.984,0.16 -6.689,0 -12.143,-5.453 -12.143,-12.139 0,-6.689 5.453,-12.141 12.143,-12.141 0.681,0 1.345,0.038 1.984,0.156 -0.118,-0.64 -0.157,-1.307 -0.157,-1.962 0,-6.686 5.452,-12.148 12.147,-12.148 6.682,0 12.119,5.463 12.119,12.148 0,0.656 -0.05,1.322 -0.167,1.962 0.648,-0.118 1.307,-0.156 1.993,-0.156 6.68,0 12.118,5.452 12.118,12.141 0.001,6.686 -5.438,12.139 -12.118,12.139"
   id="path83"
   inkscape:connector-curvature="0"
   style="fill:#0097c4" />
</g>
<text
   xml:space="preserve"
   style="font-style:normal;font-variant:normal;font-weight:normal;font-stretch:normal;font-size:41.97249985px;line-height:1.25;font-family:Emulogic;-inkscape-font-specification:Emulogic;letter-spacing:0px;word-spacing:0px;fill:#000000;fill-opacity:1;stroke:none;stroke-width:1.04931247"
   x="5.9763737"
   y="142.39023"
   id="text96"
   transform="scale(1.0022986,0.99770668)"><tspan
     sodipodi:role="line"
     id="tspan94"
     x="5.9763737"
     y="142.39023"
     style="font-size:13.99083233px;stroke-width:1.04931247">Emulatorjs</tspan></text>
</svg>