<?xml version="1.0" encoding="UTF-8" standalone="no"?>
<!-- Created with Inkscape (http://www.inkscape.org/) -->

<svg
   width="1700"
   height="240"
   viewBox="0 0 449.79166 63.499999"
   version="1.1"
   id="svg1"
   xml:space="preserve"
   xmlns="http://www.w3.org/2000/svg"
   xmlns:svg="http://www.w3.org/2000/svg"><defs
     id="defs1"><rect
       x="63.566109"
       y="865.36591"
       width="1929.7869"
       height="223.93121"
       id="rect29" /></defs><g
     id="layer1"><g
       id="g1"
       transform="matrix(0.29608121,0,0,0.29608121,1.2848687,-6.95555)"><path
         id="path23-8"
         style="fill:#023252;fill-opacity:1;fill-rule:evenodd;stroke:none;stroke-width:0.264583"
         d="M 132.29167,25.726078 A 103,105 0 0 0 45.155383,74.868815 H 219.47239 A 103,105 0 0 0 132.29167,25.726078 Z M 45.398263,187.03665 a 103,105 0 0 0 86.893407,48.68953 103,105 0 0 0 86.8934,-48.68953 z" /><path
         id="path23"
         style="fill:#00baf2;fill-opacity:1;fill-rule:evenodd;stroke:none;stroke-width:0.264583"
         d="M 132.3573,32.725651 A 96,98 0 0 0 53.705249,74.868815 H 211.2052 A 96,98 0 0 0 132.3573,32.725651 Z M 54.037528,187.03665 a 96,98 0 0 0 78.319772,41.68944 96,98 0 0 0 78.32028,-41.68944 z" /><path
         id="path20"
         style="display:inline;fill:#023252;fill-opacity:1;fill-rule:evenodd;stroke:none;stroke-width:0.264583"
         d="M 240.87574,58.696159 25.018111,58.79021 A 20.267572,20.267572 0 0 0 4.7593994,79.025667 L 4.5966187,181.74601 a 20.775532,20.775532 0 0 0 20.7847773,20.80855 l 215.868474,-0.0941 a 20.035558,20.035558 0 0 0 20.02669,-20.06389 L 261.13083,78.914046 A 20.246328,20.246328 0 0 0 240.87574,58.696159 Z M 28.649931,79.193099 H 245.41809 V 180.81997 H 28.649931 Z" /><path
         id="path5"
         mask="none"
         style="display:inline;fill:#0098c5;fill-opacity:1;fill-rule:evenodd;stroke:none;stroke-width:0.264583;stroke-opacity:1"
         d="M 240.04375,65.851794 24.832593,66.02181 A 12.62012,12.62012 0 0 0 12.22251,78.63241 l -0.077,103.40661 a 12.898622,12.898622 0 0 0 12.893787,12.90825 l 215.656603,0.0853 a 13.296673,13.296673 0 0 0 13.30203,-13.29686 V 79.795129 A 13.943368,13.943368 0 0 0 240.04375,65.851794 Z m -44.89856,18.476909 a 19.460455,19.865879 0 0 1 19.46032,19.865967 19.460455,19.865879 0 0 1 -1.54358,7.66414 19.460455,19.865879 0 0 1 7.028,-1.3932 19.460455,19.865879 0 0 1 19.46031,19.86597 19.460455,19.865879 0 0 1 -19.46031,19.86597 19.460455,19.865879 0 0 1 -6.2389,-1.09244 19.460455,19.865879 0 0 1 0.74672,5.42913 19.460455,19.865879 0 0 1 -19.46082,19.86597 19.460455,19.865879 0 0 1 -19.46031,-19.86597 19.460455,19.865879 0 0 1 1.03611,-6.27559 19.460455,19.865879 0 0 1 -7.51634,1.57872 19.460455,19.865879 0 0 1 -19.46031,-19.86598 19.460455,19.865879 0 0 1 19.46031,-19.86597 19.460455,19.865879 0 0 1 8.0424,1.78181 19.460455,19.865879 0 0 1 -1.55391,-7.69256 19.460455,19.865879 0 0 1 19.46031,-19.865967 z M 55.94904,90.815645 h 36.217944 v 21.892725 h 18.919776 v 34.0558 H 92.166984 v 23.24457 H 55.94904 V 146.76417 H 35.407141 v -34.0558 H 55.94904 Z" /><path
         id="path2"
         style="display:inline;fill:#023252;fill-opacity:1;fill-rule:evenodd;stroke:none;stroke-width:0.264583"
         d="m 194.94211,82.042537 a 22.5,22.5 0 0 0 -22.49992,22.499923 22.5,22.5 0 0 0 0.26716,3.37757 22.5,22.5 0 0 0 -3.84472,-0.33797 22.5,22.5 0 0 0 -22.49992,22.49992 22.5,22.5 0 0 0 22.49992,22.49992 22.5,22.5 0 0 0 3.93361,-0.38809 22.5,22.5 0 0 0 -0.33487,3.68763 22.5,22.5 0 0 0 22.50044,22.49992 22.5,22.5 0 0 0 22.49992,-22.49992 22.5,22.5 0 0 0 -0.27544,-3.48402 22.5,22.5 0 0 0 3.82561,0.36483 22.5,22.5 0 0 0 22.49992,-22.49992 22.5,22.5 0 0 0 -22.49992,-22.49992 22.5,22.5 0 0 0 -3.8871,0.37776 22.5,22.5 0 0 0 0.31522,-3.59771 22.5,22.5 0 0 0 -22.49991,-22.499923 z m -0.19121,7.4042 a 15,15 0 0 1 15.00012,15.000113 15,15 0 0 1 -15.00012,15.00012 15,15 0 0 1 -15.00011,-15.00012 15,15 0 0 1 15.00011,-15.000113 z m 25.89248,25.795843 a 15,15 0 0 1 14.9996,14.9996 15,15 0 0 1 -14.9996,15.00012 15,15 0 0 1 -15.00012,-15.00012 15,15 0 0 1 15.00012,-14.9996 z m -51.58858,0.0966 a 15,15 0 0 1 15.00012,15.00012 15,15 0 0 1 -15.00012,15.00012 15,15 0 0 1 -15.00012,-15.00012 15,15 0 0 1 15.00012,-15.00012 z m 25.96017,25.68732 a 15,15 0 0 1 15.00012,14.99961 15,15 0 0 1 -15.00012,15.00011 15,15 0 0 1 -15.00012,-15.00011 15,15 0 0 1 15.00012,-14.99961 z" /><path
         id="path1"
         clip-path="none"
         style="display:inline;fill:#023252;fill-opacity:1;fill-rule:evenodd;stroke:none;stroke-width:0.264583"
         d="m 95.893888,86.637089 -42.996342,0.05478 -0.02997,22.037411 -22.249805,0.0129 -0.02222,42.42428 22.366593,-0.10128 -0.108004,22.41568 42.960169,-0.0398 0.139526,-22.36607 22.181075,-0.003 5.1e-4,-42.32507 -22.289072,-0.0475 z m -35.677409,7.404716 27.734225,0.02325 -0.0031,22.228625 22.046716,0.0506 0.003,27.43347 -21.995552,0.0842 -0.01395,22.23017 -27.739909,0.005 0.0031,-22.33611 -22.032247,-0.0202 -0.09302,-27.43037 22.105628,0.0171 z" /></g><text
       xml:space="preserve"
       transform="matrix(0.26458333,0,0,0.26458333,75.785555,-217.05496)"
       id="text29"
       style="font-style:normal;font-variant:normal;font-weight:normal;font-stretch:normal;font-size:133.333px;font-family:'Press Start 2P';-inkscape-font-specification:'Press Start 2P, Normal';font-variant-ligatures:normal;font-variant-caps:normal;font-variant-numeric:normal;font-variant-east-asian:normal;white-space:pre;shape-inside:url(#rect29);shape-padding:0;display:inline;fill:#000000;fill-opacity:1;fill-rule:evenodd;stroke:none"><tspan
         x="63.566406"
         y="1015.3649"
         id="tspan1">EMULATORJS</tspan></text></g></svg>
