<?xml version="1.0" encoding="UTF-8" standalone="no"?>
<!-- Created with Inkscape (http://www.inkscape.org/) -->

<svg
   width="1700"
   height="240"
   viewBox="0 0 449.79166 63.499999"
   version="1.1"
   id="svg1"
   xml:space="preserve"
   inkscape:version="1.3.2 (091e20e, 2023-11-25, custom)"
   sodipodi:docname="EmulatorJS Header Inkscape.svg"
   inkscape:export-filename="EmulatorJS Header.svg"
   inkscape:export-xdpi="192"
   inkscape:export-ydpi="192"
   xmlns:inkscape="http://www.inkscape.org/namespaces/inkscape"
   xmlns:sodipodi="http://sodipodi.sourceforge.net/DTD/sodipodi-0.dtd"
   xmlns="http://www.w3.org/2000/svg"
   xmlns:svg="http://www.w3.org/2000/svg"><sodipodi:namedview
     id="namedview1"
     pagecolor="#505050"
     bordercolor="#eeeeee"
     borderopacity="1"
     inkscape:showpageshadow="0"
     inkscape:pageopacity="0"
     inkscape:pagecheckerboard="0"
     inkscape:deskcolor="#505050"
     inkscape:document-units="mm"
     inkscape:zoom="0.48945419"
     inkscape:cx="812.12912"
     inkscape:cy="186.94293"
     inkscape:window-width="1920"
     inkscape:window-height="991"
     inkscape:window-x="-9"
     inkscape:window-y="-9"
     inkscape:window-maximized="1"
     inkscape:current-layer="layer1" /><defs
     id="defs1"><rect
       x="63.566109"
       y="865.36591"
       width="1929.7869"
       height="223.93121"
       id="rect29" /><inkscape:path-effect
       effect="fillet_chamfer"
       id="path-effect20"
       is_visible="true"
       lpeversion="1"
       nodesatellites_param="F,0,1,1,0,20.226633,0,1 @ F,0,0,1,0,20.817566,0,1 @ F,0,0,1,0,20.055082,0,1 @ F,0,0,1,0,20.226633,0,1"
       radius="0"
       unit="px"
       method="auto"
       mode="F"
       chamfer_steps="1"
       flexible="false"
       use_knot_distance="true"
       apply_no_radius="true"
       apply_with_radius="true"
       only_selected="false"
       hide_knots="false" /><inkscape:path-effect
       effect="fillet_chamfer"
       id="path-effect17"
       is_visible="true"
       lpeversion="1"
       nodesatellites_param="F,0,0,1,0,12.600805,0,1 @ F,0,0,1,0,12.903086,0,1 @ F,0,0,1,0,13.30193,0,1 @ F,0,0,1,0,13.954392,0,1"
       radius="0"
       unit="px"
       method="auto"
       mode="F"
       chamfer_steps="1"
       flexible="false"
       use_knot_distance="true"
       apply_no_radius="true"
       apply_with_radius="true"
       only_selected="false"
       hide_knots="false" /><inkscape:path-effect
       effect="powermask"
       id="path-effect12"
       is_visible="true"
       lpeversion="1"
       uri="#mask-powermask-path-effect12"
       invert="false"
       hide_mask="false"
       background="true"
       background_color="#ffffffff" /><inkscape:path-effect
       effect="powermask"
       id="path-effect10"
       is_visible="true"
       lpeversion="1"
       uri="#mask-powermask-path-effect12"
       invert="false"
       hide_mask="false"
       background="true"
       background_color="#ffffffff" /><inkscape:path-effect
       effect="fillet_chamfer"
       id="path-effect6"
       is_visible="true"
       lpeversion="1"
       nodesatellites_param="F,0,0,1,0,12.600805,0,1 @ F,0,0,1,0,12.903086,0,1 @ F,0,0,1,0,13.30193,0,1 @ F,0,0,1,0,13.954392,0,1"
       radius="0"
       unit="px"
       method="auto"
       mode="F"
       chamfer_steps="1"
       flexible="false"
       use_knot_distance="true"
       apply_no_radius="true"
       apply_with_radius="true"
       only_selected="false"
       hide_knots="false" /><inkscape:path-effect
       effect="powerclip"
       id="path-effect9"
       is_visible="true"
       lpeversion="1"
       inverse="true"
       flatten="false"
       hide_clip="false"
       message="Use fill-rule evenodd on &lt;b&gt;fill and stroke&lt;/b&gt; dialog if no flatten result after convert clip to paths." /><inkscape:path-effect
       effect="powerclip"
       id="path-effect7"
       is_visible="true"
       lpeversion="1"
       inverse="true"
       flatten="false"
       hide_clip="false"
       message="Use fill-rule evenodd on &lt;b&gt;fill and stroke&lt;/b&gt; dialog if no flatten result after convert clip to paths." /><inkscape:path-effect
       effect="powermask"
       id="path-effect1385"
       is_visible="true"
       lpeversion="1"
       uri="#mask19"
       invert="false"
       hide_mask="false"
       background="true"
       background_color="#ffffffff" /><inkscape:path-effect
       effect="powerclip"
       id="path-effect1378"
       is_visible="true"
       lpeversion="1"
       inverse="true"
       flatten="false"
       hide_clip="false"
       message="Use fill-rule evenodd on &lt;b&gt;fill and stroke&lt;/b&gt; dialog if no flatten result after convert clip to paths." /><inkscape:path-effect
       effect="powermask"
       id="path-effect1372"
       is_visible="true"
       lpeversion="1"
       uri="#mask19"
       invert="false"
       hide_mask="false"
       background="true"
       background_color="#ffffffff" /><inkscape:path-effect
       effect="powerclip"
       id="path-effect1360"
       is_visible="true"
       lpeversion="1"
       inverse="true"
       flatten="false"
       hide_clip="false"
       message="Use fill-rule evenodd on &lt;b&gt;fill and stroke&lt;/b&gt; dialog if no flatten result after convert clip to paths." /><inkscape:path-effect
       effect="powerclip"
       id="path-effect1358"
       is_visible="true"
       lpeversion="1"
       inverse="true"
       flatten="false"
       hide_clip="false"
       message="Use fill-rule evenodd on &lt;b&gt;fill and stroke&lt;/b&gt; dialog if no flatten result after convert clip to paths." /><inkscape:path-effect
       effect="fillet_chamfer"
       id="path-effect1354"
       is_visible="true"
       lpeversion="1"
       nodesatellites_param="F,0,0,1,0,12.600805,0,1 @ F,0,0,1,0,12.903086,0,1 @ F,0,0,1,0,13.30193,0,1 @ F,0,0,1,0,13.954392,0,1"
       radius="0"
       unit="px"
       method="auto"
       mode="F"
       chamfer_steps="1"
       flexible="false"
       use_knot_distance="true"
       apply_no_radius="true"
       apply_with_radius="true"
       only_selected="false"
       hide_knots="false" /><inkscape:path-effect
       effect="powerclip"
       id="path-effect1353"
       is_visible="true"
       lpeversion="1"
       inverse="true"
       flatten="false"
       hide_clip="false"
       message="Use fill-rule evenodd on &lt;b&gt;fill and stroke&lt;/b&gt; dialog if no flatten result after convert clip to paths." /><inkscape:path-effect
       effect="powerclip"
       id="path-effect1340"
       is_visible="true"
       lpeversion="1"
       inverse="true"
       flatten="false"
       hide_clip="false"
       message="Use fill-rule evenodd on &lt;b&gt;fill and stroke&lt;/b&gt; dialog if no flatten result after convert clip to paths." /><clipPath
       clipPathUnits="userSpaceOnUse"
       id="clipPath1340"><path
         style="display:none;fill:#008000;fill-opacity:1;fill-rule:evenodd;stroke:none;stroke-width:0.264583;stroke-opacity:1"
         d="m 60.216695,94.041981 0.014,22.285239 -22.105215,-0.0169 0.09266,27.43049 22.032341,0.0198 -0.0029,22.3364 27.739845,-0.005 0.014,-22.22975 21.995664,-0.0845 -0.003,-27.43338 -22.046361,-0.0507 0.0029,-22.228755 z"
         id="path1340"
         sodipodi:nodetypes="ccccccccccccc" /><path
         id="lpe_path-effect1340"
         style="display:block;fill:#008000;fill-opacity:1;fill-rule:evenodd;stroke:none;stroke-width:0.264583;stroke-opacity:1"
         class="powerclip"
         d="M 25.595336,81.636904 H 123.13566 V 178.4807 H 25.595336 Z m 34.621359,12.405077 0.014,22.285239 -22.105215,-0.0169 0.09266,27.43049 22.032341,0.0198 -0.0029,22.3364 27.739845,-0.005 0.014,-22.22975 21.995664,-0.0845 -0.003,-27.43338 -22.046361,-0.0507 0.0029,-22.228755 z" /></clipPath><clipPath
       clipPathUnits="userSpaceOnUse"
       id="clipPath1350"><g
         id="g1353"
         style="display:block"><circle
           style="fill:#800080;fill-opacity:1;fill-rule:evenodd;stroke:none;stroke-width:0.264583;stroke-opacity:1"
           id="circle1350"
           cx="194.94238"
           cy="104.26208"
           r="15" /><circle
           style="fill:#800080;fill-opacity:1;fill-rule:evenodd;stroke:none;stroke-width:0.264583;stroke-opacity:1"
           id="circle1351"
           cx="169.08174"
           cy="130.22151"
           r="15" /><circle
           style="fill:#800080;fill-opacity:1;fill-rule:evenodd;stroke:none;stroke-width:0.264583;stroke-opacity:1"
           id="circle1352"
           cx="220.86896"
           cy="130.21582"
           r="15" /><circle
           style="fill:#800080;fill-opacity:1;fill-rule:evenodd;stroke:none;stroke-width:0.264583;stroke-opacity:1"
           id="circle1353"
           cx="194.81639"
           cy="155.97093"
           r="15" /></g></clipPath><clipPath
       clipPathUnits="userSpaceOnUse"
       id="clipath_lpe_path-effect1358"><path
         style="display:none;fill:#008000;fill-opacity:1;fill-rule:evenodd;stroke:none;stroke-width:0.264583;stroke-opacity:1"
         d="m 60.216695,94.041981 0.014,22.285239 -22.105215,-0.0169 0.09266,27.43049 22.032341,0.0198 -0.0029,22.3364 27.739845,-0.005 0.014,-22.22975 21.995664,-0.0845 -0.003,-27.43338 -22.046361,-0.0507 0.0029,-22.228755 z"
         id="path1358"
         sodipodi:nodetypes="ccccccccccccc" /><path
         id="lpe_path-effect1358"
         style="fill:#008000;fill-opacity:1;fill-rule:evenodd;stroke:none;stroke-width:0.264583;stroke-opacity:1"
         class="powerclip"
         d="M 25.595336,81.636904 H 123.13566 V 178.4807 H 25.595336 Z m 34.621359,12.405077 0.014,22.285239 -22.105215,-0.0169 0.09266,27.43049 22.032341,0.0198 -0.0029,22.3364 27.739845,-0.005 0.014,-22.22975 21.995664,-0.0845 -0.003,-27.43338 -22.046361,-0.0507 0.0029,-22.228755 z" /></clipPath><clipPath
       clipPathUnits="userSpaceOnUse"
       id="clipath_lpe_path-effect1360"><g
         id="g1363"
         style="display:block"><circle
           style="fill:#800080;fill-opacity:1;fill-rule:evenodd;stroke:none;stroke-width:0.264583;stroke-opacity:1"
           id="circle1360"
           cx="194.94238"
           cy="104.26208"
           r="15" /><circle
           style="fill:#800080;fill-opacity:1;fill-rule:evenodd;stroke:none;stroke-width:0.264583;stroke-opacity:1"
           id="circle1361"
           cx="169.08174"
           cy="130.22151"
           r="15" /><circle
           style="fill:#800080;fill-opacity:1;fill-rule:evenodd;stroke:none;stroke-width:0.264583;stroke-opacity:1"
           id="circle1362"
           cx="220.86896"
           cy="130.21582"
           r="15" /><circle
           style="fill:#800080;fill-opacity:1;fill-rule:evenodd;stroke:none;stroke-width:0.264583;stroke-opacity:1"
           id="circle1363"
           cx="194.81639"
           cy="155.97093"
           r="15" /></g></clipPath><mask
       maskUnits="userSpaceOnUse"
       id="mask-powermask-path-effect1372"><path
         style="fill:#023252;fill-opacity:1;fill-rule:evenodd;stroke:none;stroke-width:0.264583"
         d="m 52.897468,86.691867 -0.02969,22.037633 -22.249752,0.0128 -0.02269,42.42418 22.366799,-0.10136 -0.108147,22.41558 42.960444,-0.0395 0.139241,-22.36631 22.180987,-0.003 0.001,-42.32481 -22.28934,-0.0478 0.04778,-22.062376 z"
         id="path1372"
         sodipodi:nodetypes="ccccccccccccc"
         clip-path="url(#clipPath1340)"
         inkscape:original-d="m 52.897468,86.691867 -0.02969,22.037633 -22.249752,0.0128 -0.02269,42.42418 22.366799,-0.10136 -0.108147,22.41558 42.960444,-0.0395 0.139241,-22.36631 22.180987,-0.003 0.001,-42.32481 -22.28934,-0.0478 0.04778,-22.062376 z"
         inkscape:path-effect="#path-effect1340" /></mask><clipPath
       clipPathUnits="userSpaceOnUse"
       id="clipath_lpe_path-effect1378"><g
         id="g1381"
         style="display:none"><circle
           style="fill:#800080;fill-opacity:1;fill-rule:evenodd;stroke:none;stroke-width:0.264583;stroke-opacity:1"
           id="circle1378"
           cx="194.94238"
           cy="104.26208"
           r="15" /><circle
           style="fill:#800080;fill-opacity:1;fill-rule:evenodd;stroke:none;stroke-width:0.264583;stroke-opacity:1"
           id="circle1379"
           cx="169.08174"
           cy="130.22151"
           r="15" /><circle
           style="fill:#800080;fill-opacity:1;fill-rule:evenodd;stroke:none;stroke-width:0.264583;stroke-opacity:1"
           id="circle1380"
           cx="220.86896"
           cy="130.21582"
           r="15" /><circle
           style="fill:#800080;fill-opacity:1;fill-rule:evenodd;stroke:none;stroke-width:0.264583;stroke-opacity:1"
           id="circle1381"
           cx="194.81639"
           cy="155.97093"
           r="15" /></g><path
         id="lpe_path-effect1378"
         class="powerclip"
         d="M 141.42592,76.964783 H 248.29196 V 183.83188 H 141.42592 Z m 68.51646,27.297297 a 15,15 0 0 0 -15,-15.000003 15,15 0 0 0 -15,15.000003 15,15 0 0 0 15,15 15,15 0 0 0 15,-15 z m -25.86064,25.95943 a 15,15 0 0 0 -15,-15 15,15 0 0 0 -15,15 15,15 0 0 0 15,15 15,15 0 0 0 15,-15 z m 51.78722,-0.006 a 15,15 0 0 0 -15,-15 15,15 0 0 0 -15,15 15,15 0 0 0 15,15 15,15 0 0 0 15,-15 z m -26.05257,25.75511 a 15,15 0 0 0 -15,-15 15,15 0 0 0 -15,15 15,15 0 0 0 15,15 15,15 0 0 0 15,-15 z" /></clipPath><mask
       maskUnits="userSpaceOnUse"
       id="mask-powermask-path-effect1385" /><clipPath
       clipPathUnits="userSpaceOnUse"
       id="clipath_lpe_path-effect9"><g
         id="g12"
         style="display:block"><circle
           style="fill:#800080;fill-opacity:1;fill-rule:evenodd;stroke:none;stroke-width:0.264583;stroke-opacity:1"
           id="circle9"
           cx="194.94238"
           cy="104.26208"
           r="15" /><circle
           style="fill:#800080;fill-opacity:1;fill-rule:evenodd;stroke:none;stroke-width:0.264583;stroke-opacity:1"
           id="circle10"
           cx="169.08174"
           cy="130.22151"
           r="15" /><circle
           style="fill:#800080;fill-opacity:1;fill-rule:evenodd;stroke:none;stroke-width:0.264583;stroke-opacity:1"
           id="circle11"
           cx="220.86896"
           cy="130.21582"
           r="15" /><circle
           style="fill:#800080;fill-opacity:1;fill-rule:evenodd;stroke:none;stroke-width:0.264583;stroke-opacity:1"
           id="circle12"
           cx="194.81639"
           cy="155.97093"
           r="15" /></g></clipPath><filter
       id="mask-powermask-path-effect19_inverse"
       inkscape:label="filtermask-powermask-path-effect19"
       style="color-interpolation-filters:sRGB"
       height="100"
       width="100"
       x="-50"
       y="-50"><feColorMatrix
         id="mask-powermask-path-effect19_primitive1"
         values="1"
         type="saturate"
         result="fbSourceGraphic" /><feColorMatrix
         id="mask-powermask-path-effect19_primitive2"
         values="-1 0 0 0 1 0 -1 0 0 1 0 0 -1 0 1 0 0 0 1 0 "
         in="fbSourceGraphic" /></filter><mask
       maskUnits="userSpaceOnUse"
       id="mask19" /><mask
       maskUnits="userSpaceOnUse"
       id="mask-powermask-path-effect10"><path
         id="path12"
         style="fill:#ffffff;fill-opacity:1"
         d="M 11.145661,64.851797 H 254.99807 V 196.03242 H 11.145661 Z" /><path
         id="path13"
         style="fill:#ffffff;fill-opacity:1"
         d="M 11.145661,64.851797 H 254.99807 V 196.03242 H 11.145661 Z" /></mask><filter
       id="mask-powermask-path-effect12_inverse"
       inkscape:label="filtermask-powermask-path-effect12"
       style="color-interpolation-filters:sRGB"
       height="100"
       width="100"
       x="-50"
       y="-50"><feColorMatrix
         id="mask-powermask-path-effect12_primitive1"
         values="1"
         type="saturate"
         result="fbSourceGraphic" /><feColorMatrix
         id="mask-powermask-path-effect12_primitive2"
         values="-1 0 0 0 1 0 -1 0 0 1 0 0 -1 0 1 0 0 0 1 0 "
         in="fbSourceGraphic" /></filter></defs><g
     inkscape:label="Layer 1"
     inkscape:groupmode="layer"
     id="layer1"><g
       id="g1"
       transform="matrix(0.29608121,0,0,0.29608121,1.2848687,-6.95555)"><path
         id="path23-8"
         style="fill:#023252;fill-opacity:1;fill-rule:evenodd;stroke:none;stroke-width:0.264583"
         inkscape:label="path6"
         d="M 132.29167,25.726078 A 103,105 0 0 0 45.155383,74.868815 H 219.47239 A 103,105 0 0 0 132.29167,25.726078 Z M 45.398263,187.03665 a 103,105 0 0 0 86.893407,48.68953 103,105 0 0 0 86.8934,-48.68953 z" /><path
         id="path23"
         style="fill:#00baf2;fill-opacity:1;fill-rule:evenodd;stroke:none;stroke-width:0.264583"
         inkscape:label="path5"
         d="M 132.3573,32.725651 A 96,98 0 0 0 53.705249,74.868815 H 211.2052 A 96,98 0 0 0 132.3573,32.725651 Z M 54.037528,187.03665 a 96,98 0 0 0 78.319772,41.68944 96,98 0 0 0 78.32028,-41.68944 z" /><path
         id="path20"
         style="display:inline;fill:#023252;fill-opacity:1;fill-rule:evenodd;stroke:none;stroke-width:0.264583"
         d="M 240.87574,58.696159 25.018111,58.79021 A 20.267572,20.267572 0 0 0 4.7593994,79.025667 L 4.5966187,181.74601 a 20.775532,20.775532 0 0 0 20.7847773,20.80855 l 215.868474,-0.0941 a 20.035558,20.035558 0 0 0 20.02669,-20.06389 L 261.13083,78.914046 A 20.246328,20.246328 0 0 0 240.87574,58.696159 Z M 28.649931,79.193099 H 245.41809 V 180.81997 H 28.649931 Z"
         inkscape:label="path4"
         inkscape:export-filename="EmulatorJS.png"
         inkscape:export-xdpi="96"
         inkscape:export-ydpi="96" /><path
         id="path5"
         mask="none"
         style="display:inline;fill:#0098c5;fill-opacity:1;fill-rule:evenodd;stroke:none;stroke-width:0.264583;stroke-opacity:1"
         d="M 240.04375,65.851794 24.832593,66.02181 A 12.62012,12.62012 0 0 0 12.22251,78.63241 l -0.077,103.40661 a 12.898622,12.898622 0 0 0 12.893787,12.90825 l 215.656603,0.0853 a 13.296673,13.296673 0 0 0 13.30203,-13.29686 V 79.795129 A 13.943368,13.943368 0 0 0 240.04375,65.851794 Z m -44.89856,18.476909 a 19.460455,19.865879 0 0 1 19.46032,19.865967 19.460455,19.865879 0 0 1 -1.54358,7.66414 19.460455,19.865879 0 0 1 7.028,-1.3932 19.460455,19.865879 0 0 1 19.46031,19.86597 19.460455,19.865879 0 0 1 -19.46031,19.86597 19.460455,19.865879 0 0 1 -6.2389,-1.09244 19.460455,19.865879 0 0 1 0.74672,5.42913 19.460455,19.865879 0 0 1 -19.46082,19.86597 19.460455,19.865879 0 0 1 -19.46031,-19.86597 19.460455,19.865879 0 0 1 1.03611,-6.27559 19.460455,19.865879 0 0 1 -7.51634,1.57872 19.460455,19.865879 0 0 1 -19.46031,-19.86598 19.460455,19.865879 0 0 1 19.46031,-19.86597 19.460455,19.865879 0 0 1 8.0424,1.78181 19.460455,19.865879 0 0 1 -1.55391,-7.69256 19.460455,19.865879 0 0 1 19.46031,-19.865967 z M 55.94904,90.815645 h 36.217944 v 21.892725 h 18.919776 v 34.0558 H 92.166984 v 23.24457 H 55.94904 V 146.76417 H 35.407141 v -34.0558 H 55.94904 Z"
         inkscape:label="path3" /><path
         id="path2"
         style="display:inline;fill:#023252;fill-opacity:1;fill-rule:evenodd;stroke:none;stroke-width:0.264583"
         d="m 194.94211,82.042537 a 22.5,22.5 0 0 0 -22.49992,22.499923 22.5,22.5 0 0 0 0.26716,3.37757 22.5,22.5 0 0 0 -3.84472,-0.33797 22.5,22.5 0 0 0 -22.49992,22.49992 22.5,22.5 0 0 0 22.49992,22.49992 22.5,22.5 0 0 0 3.93361,-0.38809 22.5,22.5 0 0 0 -0.33487,3.68763 22.5,22.5 0 0 0 22.50044,22.49992 22.5,22.5 0 0 0 22.49992,-22.49992 22.5,22.5 0 0 0 -0.27544,-3.48402 22.5,22.5 0 0 0 3.82561,0.36483 22.5,22.5 0 0 0 22.49992,-22.49992 22.5,22.5 0 0 0 -22.49992,-22.49992 22.5,22.5 0 0 0 -3.8871,0.37776 22.5,22.5 0 0 0 0.31522,-3.59771 22.5,22.5 0 0 0 -22.49991,-22.499923 z m -0.19121,7.4042 a 15,15 0 0 1 15.00012,15.000113 15,15 0 0 1 -15.00012,15.00012 15,15 0 0 1 -15.00011,-15.00012 15,15 0 0 1 15.00011,-15.000113 z m 25.89248,25.795843 a 15,15 0 0 1 14.9996,14.9996 15,15 0 0 1 -14.9996,15.00012 15,15 0 0 1 -15.00012,-15.00012 15,15 0 0 1 15.00012,-14.9996 z m -51.58858,0.0966 a 15,15 0 0 1 15.00012,15.00012 15,15 0 0 1 -15.00012,15.00012 15,15 0 0 1 -15.00012,-15.00012 15,15 0 0 1 15.00012,-15.00012 z m 25.96017,25.68732 a 15,15 0 0 1 15.00012,14.99961 15,15 0 0 1 -15.00012,15.00011 15,15 0 0 1 -15.00012,-15.00011 15,15 0 0 1 15.00012,-14.99961 z" /><path
         id="path1"
         clip-path="none"
         style="display:inline;fill:#023252;fill-opacity:1;fill-rule:evenodd;stroke:none;stroke-width:0.264583"
         d="m 95.893888,86.637089 -42.996342,0.05478 -0.02997,22.037411 -22.249805,0.0129 -0.02222,42.42428 22.366593,-0.10128 -0.108004,22.41568 42.960169,-0.0398 0.139526,-22.36607 22.181075,-0.003 5.1e-4,-42.32507 -22.289072,-0.0475 z m -35.677409,7.404716 27.734225,0.02325 -0.0031,22.228625 22.046716,0.0506 0.003,27.43347 -21.995552,0.0842 -0.01395,22.23017 -27.739909,0.005 0.0031,-22.33611 -22.032247,-0.0202 -0.09302,-27.43037 22.105628,0.0171 z" /></g><text
       xml:space="preserve"
       transform="matrix(0.26458333,0,0,0.26458333,75.785555,-217.05496)"
       id="text29"
       style="font-style:normal;font-variant:normal;font-weight:normal;font-stretch:normal;font-size:133.333px;font-family:'Press Start 2P';-inkscape-font-specification:'Press Start 2P, Normal';font-variant-ligatures:normal;font-variant-caps:normal;font-variant-numeric:normal;font-variant-east-asian:normal;white-space:pre;shape-inside:url(#rect29);shape-padding:0;display:inline;fill:#000000;fill-opacity:1;fill-rule:evenodd;stroke:none"
       inkscape:label="text"><tspan
         x="63.566406"
         y="1015.3649"
         id="tspan1">EMULATORJS</tspan></text></g></svg>
